# ASF file generated by Tido's ASF writer for MATLAB.
:version 1.10
:name VICON
:units
  mass 1
  length 0.45000000000000001
  angle deg
:documentation
   .ast/.asf automatically generated from VICON data using
   VICON BodyBuilder and BodyLanguage model FoxedUp or BRILLIANT.MOD
:root
  axis xyz
  order tx ty tz rx ry rz 
  position 0 0 0
  orientation 0 0 0
:bonedata
  begin
    id 1
    name lhipjoint
    direction 0.44017800000000001 -0.82263900000000001 0.359871
    length 1.1390085000000001
    axis 0 0 0 xyz
  end
  begin
    id 2
    name lfemur
    direction 0.34201999999999999 -0.939693 0
    length 3.5465939999999998
    axis 0 0 20 xyz
    dof rx ry rz 
    limits (-160 20)
           (-70 70)
           (-60 70)
  end
  begin
    id 3
    name ltibia
    direction 0.34201999999999999 -0.939693 0
    length 3.7970234999999999
    axis 0 0 20 xyz
    dof rx 
    limits (-10 170)
  end
  begin
    id 4
    name lfoot
    direction 0.088635099999999994 -0.24352299999999999 0.96583699999999995
    length 1.1853629999999999
    axis -90 7.62852e-016 20 xyz
    dof rx rz 
    limits (-45 90)
           (-70 20)
  end
  begin
    id 5
    name ltoes
    direction 1.53703e-011 -4.2171700000000001e-011 1
    length 0.59142150000000004
    axis -90 7.62852e-016 20 xyz
    dof rx 
    limits (-90 20)
  end
  begin
    id 6
    name rhipjoint
    direction -0.399779 -0.83977299999999999 0.367367
    length 1.115766
    axis 0 0 0 xyz
  end
  begin
    id 7
    name rfemur
    direction -0.34201999999999999 -0.939693 0
    length 3.4866269999999999
    axis 0 0 -20 xyz
    dof rx ry rz 
    limits (-160 20)
           (-70 70)
           (-70 60)
  end
  begin
    id 8
    name rtibia
    direction -0.34201999999999999 -0.939693 0
    length 3.9349440000000002
    axis 0 0 -20 xyz
    dof rx 
    limits (-10 170)
  end
  begin
    id 9
    name rfoot
    direction -0.108514 -0.29813899999999999 0.94833400000000001
    length 1.1974590000000001
    axis -90 -7.62852e-016 -20 xyz
    dof rx rz 
    limits (-45 90)
           (-20 70)
  end
  begin
    id 10
    name rtoes
    direction -1.5339199999999999e-011 -4.2207699999999999e-011 1
    length 0.59392350000000005
    axis -90 -7.62852e-016 -20 xyz
    dof rx 
    limits (-90 20)
  end
  begin
    id 11
    name lowerback
    direction 0.011325699999999999 0.99986600000000003 0.0118602
    length 1.164123
    axis 0 0 0 xyz
    dof rx ry rz 
    limits (-20 45)
           (-30 30)
           (-30 30)
  end
  begin
    id 12
    name upperback
    direction -0.016474699999999998 0.99519299999999999 -0.096537499999999998
    length 1.135656
    axis 0 0 0 xyz
    dof rx ry rz 
    limits (-20 45)
           (-30 30)
           (-30 30)
  end
  begin
    id 13
    name thorax
    direction -0.019430099999999999 0.99433000000000005 -0.10455200000000001
    length 1.1524455
    axis 0 0 0 xyz
    dof rx ry rz 
    limits (-20 45)
           (-30 30)
           (-30 30)
  end
  begin
    id 14
    name lowerneck
    direction 0.014854300000000001 0.995587 -0.092657000000000003
    length 0.772119
    axis 0 0 0 xyz
    dof rx ry rz 
    limits (-20 45)
           (-30 30)
           (-30 30)
  end
  begin
    id 15
    name upperneck
    direction -0.0135467 0.99365599999999998 -0.111639
    length 0.76021650000000007
    axis 0 0 0 xyz
    dof rx ry rz 
    limits (-20 45)
           (-30 30)
           (-30 30)
  end
  begin
    id 16
    name head
    direction -0.0061534900000000002 0.99954699999999996 -0.029447999999999998
    length 0.78578999999999999
    axis 0 0 0 xyz
    dof rx ry rz 
    limits (-20 45)
           (-30 30)
           (-30 30)
  end
  begin
    id 17
    name lclavicle
    direction 0.98826700000000001 0.14988499999999999 0.029371299999999999
    length 2.012499
    axis 0 0 0 xyz
    dof ry rz 
    limits (-20 10)
           (0 20)
  end
  begin
    id 18
    name lhumerus
    direction 1 -4.4898600000000001e-011 -1.1483300000000001e-027
    length 2.4171659999999999
    axis 180 -30 -90 xyz
    dof rx ry rz 
    limits (-60 90)
           (-90 90)
           (-90 90)
  end
  begin
    id 19
    name lradius
    direction 0.99999800000000005 0.00170963 -0.00098705499999999992
    length 1.773954
    axis 180 -30 -90 xyz
    dof rx 
    limits (-10 170)
  end
  begin
    id 20
    name lwrist
    direction 0.99999800000000005 7.53149e-005 -0.00194706
    length 0.88697700000000002
    axis 4.6505600000000004e-015 90 90 xyz
    dof ry 
    limits (-180 0)
  end
  begin
    id 21
    name lhand
    direction 1 -4.48973e-011 -1.3174599999999999e-026
    length 0.5306265
    axis 8.4064999999999996e-015 90 90 xyz
    dof rx rz 
    limits (-90 90)
           (-45 45)
  end
  begin
    id 22
    name lfingers
    direction 1 -4.49107e-011 -2.6349199999999999e-026
    length 0.42780555000000003
    axis 1.6812999999999999e-014 90 90 xyz
    dof rx 
    limits (0 90)
  end
  begin
    id 23
    name lthumb
    direction 0.70710700000000004 -6.3504800000000005e-011 0.70710700000000004
    length 0.6142455
    axis -90 45 2.8529899999999998e-015 xyz
    dof rx rz 
    limits (-45 45)
           (-45 45)
  end
  begin
    id 24
    name rclavicle
    direction -0.996699 0.064289499999999999 -0.049572499999999999
    length 2.0817494999999999
    axis 0 0 0 xyz
    dof ry rz 
    limits (-10 20)
           (-20 0)
  end
  begin
    id 25
    name rhumerus
    direction -1 -4.4891899999999998e-011 -2.4105900000000001e-027
    length 2.474145
    axis 180 30 90 xyz
    dof rx ry rz 
    limits (-90 60)
           (-90 90)
           (-90 90)
  end
  begin
    id 26
    name rradius
    direction -0.99999899999999997 0.0011810099999999999 -0.00068185800000000003
    length 1.5677145000000001
    axis 180 30 90 xyz
    dof rx 
    limits (-10 170)
  end
  begin
    id 27
    name rwrist
    direction -0.99999899999999997 0.000321823 -0.00132288
    length 0.78385499999999997
    axis 4.6505600000000004e-015 -90 -90 xyz
    dof ry 
    limits (-180 0)
  end
  begin
    id 28
    name rhand
    direction -1 -4.4902199999999998e-011 -1.3174599999999999e-026
    length 0.60719400000000001
    axis 8.4064999999999996e-015 -90 -90 xyz
    dof rx rz 
    limits (-90 90)
           (-45 45)
  end
  begin
    id 29
    name rfingers
    direction -1 -4.4917800000000002e-011 -2.6349199999999999e-026
    length 0.48953249999999998
    axis 1.6812999999999999e-014 -90 -90 xyz
    dof rx 
    limits (0 90)
  end
  begin
    id 30
    name rthumb
    direction -0.70710700000000004 -6.3471300000000002e-011 0.70710700000000004
    length 0.70287750000000004
    axis -90 -45 -2.8529899999999998e-015 xyz
    dof rx rz 
    limits (-45 45)
           (-45 45)
  end
:hierarchy
begin
  root lhipjoint rhipjoint lowerback 
  lhipjoint lfemur 
  lfemur ltibia 
  ltibia lfoot 
  lfoot ltoes 
  rhipjoint rfemur 
  rfemur rtibia 
  rtibia rfoot 
  rfoot rtoes 
  lowerback upperback 
  upperback thorax 
  thorax lowerneck lclavicle rclavicle 
  lowerneck upperneck 
  upperneck head 
  lclavicle lhumerus 
  lhumerus lradius 
  lradius lwrist 
  lwrist lhand lthumb 
  lhand lfingers 
  rclavicle rhumerus 
  rhumerus rradius 
  rradius rwrist 
  rwrist rhand rthumb 
  rhand rfingers 
end

# AMC file generated by Tido's AMC writer for MATLAB on 27-Nov-2005 at 18:24:20
# Corresponding ASF file: S:\data_MoCap\MoCaDaDB\HDM\Bonn_ASF_AMC_Use IK_on\björn\bjorn.asf
# Number of frames: 542
# Sampling rate: 120
:fully-specified
:degrees
119
root -5.6201400000000001 8.51769 -9.5620949999999993 177.03899999999999 43.152299999999997 539.39200000000005 
lfemur -14.9581 11.085699999999999 -8.7804000000000002 
ltibia 68.578400000000002 
lfoot 2.1406800000000001 0.25772 
ltoes -30.881 
rfemur -15.078099999999999 -0.62632399999999999 28.506900000000002 
rtibia 36.665100000000002 
rfoot -14.3575 14.343299999999999 
rtoes 11.313800000000001 
lowerback 0.31164599999999998 -1.4757 -2.43466 
upperback 10.1808 -1.03183 -1.6306799999999999 
thorax 10.6739 -0.347053 -0.42605700000000002 
lowerneck 6.9503599999999999 -16.016100000000002 -1.1296200000000001 
upperneck 2.5400700000000001 -21.315999999999999 14.0791 
head 1.3284100000000001 -10.635999999999999 4.2784000000000004 
lclavicle -6.6592900000000005e-014 3.6576399999999999e-014 
lhumerus -36.248800000000003 -4.9169099999999997 89.910200000000003 
lradius 23.933599999999998 
lwrist -16.1997 
lhand -18.1465 -7.3231200000000003 
lfingers 7.1250200000000001 
lthumb 8.1289300000000004 22.500499999999999 
rclavicle -6.6592900000000005e-014 3.6576399999999999e-014 
rhumerus -21.3871 -18.3003 -92.304699999999997 
rradius 19.227699999999999 
rwrist 20.6296 
rhand -3.77434 10.0458 
rfingers 7.1250200000000001 
rthumb 21.970600000000001 -18.726500000000001 
120
root -5.579415 8.5171050000000008 -9.6075900000000001 176.93600000000001 44.096899999999998 539.38300000000004 
lfemur -16.107299999999999 10.8645 -9.0463500000000003 
ltibia 68.087900000000005 
lfoot 0.63079300000000005 0.730707 
ltoes -31.2438 
rfemur -14.341200000000001 -0.38068200000000002 28.518999999999998 
rtibia 36.520899999999997 
rfoot -14.5655 15.085000000000001 
rtoes 11.9833 
lowerback 0.32014700000000001 -1.3247500000000001 -2.3571499999999999 
upperback 10.247199999999999 -0.82295700000000005 -1.6606700000000001 
thorax 10.739699999999999 -0.23490900000000001 -0.48316999999999999 
lowerneck 7.0107799999999996 -15.9183 -1.2650300000000001 
upperneck 2.4599600000000001 -21.190999999999999 14.107699999999999 
head 1.30122 -10.5839 4.3156400000000001 
lclavicle 5.24792e-014 -3.0215299999999997e-014 
lhumerus -36.271999999999998 -4.8861400000000001 90.085800000000006 
lradius 23.874400000000001 
lwrist -16.418099999999999 
lhand -17.981100000000001 -7.4460800000000003 
lfingers 7.1250200000000001 
lthumb 8.2886199999999999 22.371300000000002 
rclavicle 5.24792e-014 -3.0215299999999997e-014 
rhumerus -20.9346 -17.5183 -92.732100000000003 
rradius 19.9237 
rwrist 20.1706 
rhand -3.9188100000000001 10.1258 
rfingers 7.1250200000000001 
rthumb 21.831900000000001 -18.662700000000001 
121
root -5.5389150000000003 8.5149900000000009 -9.6530850000000008 176.82499999999999 45.029600000000002 539.346 
lfemur -17.2592 10.6364 -9.3196200000000005 
ltibia 67.486000000000004 
lfoot -0.92249000000000003 1.3960900000000001 
ltoes -30.752600000000001 
rfemur -13.6373 -0.17779 28.492699999999999 
rtibia 36.390700000000002 
rfoot -14.6989 15.9048 
rtoes 12.840199999999999 
lowerback 0.34320699999999998 -1.16909 -2.26478 
upperback 10.305999999999999 -0.60691499999999998 -1.7157800000000001 
thorax 10.7882 -0.116273 -0.57438199999999995 
lowerneck 7.0032100000000002 -15.831200000000001 -1.31257 
upperneck 2.4283600000000001 -21.0792 14.059100000000001 
head 1.28315 -10.5322 4.3128399999999996 
lclavicle 2.9817699999999999e-015 1.1131899999999999e-014 
lhumerus -36.232999999999997 -4.6800600000000001 90.1815 
lradius 23.745799999999999 
lwrist -16.8629 
lhand -17.733699999999999 -7.5234300000000003 
lfingers 7.1250200000000001 
lthumb 8.5272900000000007 22.284400000000002 
rclavicle 2.9817699999999999e-015 1.1131899999999999e-014 
rhumerus -20.2912 -16.505700000000001 -93.203800000000001 
rradius 20.5212 
rwrist 19.426600000000001 
rhand -4.0974000000000004 10.1783 
rfingers 7.1250200000000001 
rthumb 21.660399999999999 -18.629999999999999 
122
root -5.4982800000000003 8.510489999999999 -9.6989400000000003 176.74600000000001 45.956000000000003 539.33799999999997 
lfemur -18.3614 10.403700000000001 -9.5401799999999994 
ltibia 66.745199999999997 
lfoot -2.4055399999999998 2.1456900000000001 
ltoes -29.804099999999998 
rfemur -12.9506 -0.027513200000000002 28.476299999999998 
rtibia 36.260199999999998 
rfoot -14.8576 16.756799999999998 
rtoes 13.6023 
lowerback 0.35392299999999999 -1.0287900000000001 -2.1659899999999999 
upperback 10.374000000000001 -0.41304200000000002 -1.74901 
thorax 10.856400000000001 -0.0090812199999999992 -0.64803900000000003 
lowerneck 6.9382599999999996 -15.7248 -1.3959999999999999 
upperneck 2.4009800000000001 -20.949300000000001 14.0284 
head 1.2792300000000001 -10.469799999999999 4.31426 
lclavicle 4.7907099999999999e-014 -2.14687e-014 
lhumerus -36.174900000000001 -4.6046199999999997 90.332999999999998 
lradius 23.6477 
lwrist -17.145199999999999 
lhand -17.476299999999998 -7.5851800000000003 
lfingers 7.1250200000000001 
lthumb 8.7757500000000004 22.212399999999999 
rclavicle 4.7907099999999999e-014 -2.14687e-014 
rhumerus -19.795100000000001 -15.511900000000001 -93.642099999999999 
rradius 21.308700000000002 
rwrist 18.696400000000001 
rhand -4.2844499999999996 10.270799999999999 
rfingers 7.1250200000000001 
rthumb 21.480799999999999 -18.558199999999999 
123
root -5.4564300000000001 8.5085550000000012 -9.7453800000000008 176.696 46.890999999999998 539.32600000000002 
lfemur -19.415900000000001 10.0383 -9.7810500000000005 
ltibia 65.835300000000004 
lfoot -3.7490299999999999 3.05864 
ltoes -28.849699999999999 
rfemur -12.279400000000001 0.083105899999999996 28.442399999999999 
rtibia 36.116199999999999 
rfoot -14.959899999999999 17.650300000000001 
rtoes 14.357100000000001 
lowerback 0.33563399999999999 -0.88290500000000005 -2.0483500000000001 
upperback 10.4213 -0.21395600000000001 -1.7978400000000001 
thorax 10.919 0.102184 -0.74858199999999997 
lowerneck 6.9222599999999996 -15.6189 -1.4345000000000001 
upperneck 2.3454999999999999 -20.8095 13.9711 
head 1.2512099999999999 -10.404999999999999 4.3094099999999997 
lclavicle -6.6394100000000002e-014 1.9878500000000001e-014 
lhumerus -36.191600000000001 -4.4205100000000002 90.430599999999998 
lradius 23.5916 
lwrist -17.587599999999998 
lhand -17.232700000000001 -7.6155499999999998 
lfingers 7.1250200000000001 
lthumb 9.0107800000000005 22.172000000000001 
rclavicle -6.6394100000000002e-014 1.9878500000000001e-014 
rhumerus -19.384799999999998 -14.247400000000001 -94.116900000000001 
rradius 22.2563 
rwrist 17.698599999999999 
rhand -4.43161 10.3253 
rfingers 7.1250200000000001 
rthumb 21.339400000000001 -18.5197 
124
root -5.4138149999999996 8.5076549999999997 -9.7917749999999995 176.61500000000001 47.7926 539.31700000000001 
lfemur -20.348700000000001 9.5256500000000006 -10.0143 
ltibia 64.730999999999995 
lfoot -4.9304100000000002 4.0217599999999996 
ltoes -27.507000000000001 
rfemur -11.5672 0.19509799999999999 28.401 
rtibia 35.968699999999998 
rfoot -15.1173 18.531400000000001 
rtoes 15.0418 
lowerback 0.36796600000000002 -0.755552 -1.9472499999999999 
upperback 10.4655 -0.0414869 -1.83375 
thorax 10.9489 0.198577 -0.82791199999999998 
lowerneck 6.9024000000000001 -15.5077 -1.47393 
upperneck 2.3317199999999998 -20.6661 13.8672 
head 1.23126 -10.3362 4.2897800000000004 
lclavicle 3.04141e-014 -3.33958e-014 
lhumerus -36.138199999999998 -4.2480500000000001 90.543599999999998 
lradius 23.478899999999999 
lwrist -17.940999999999999 
lhand -16.8599 -7.6418699999999999 
lfingers 7.1250200000000001 
lthumb 9.3704999999999998 22.129799999999999 
rclavicle 3.04141e-014 -3.33958e-014 
rhumerus -19.262799999999999 -12.4526 -94.595500000000001 
rradius 23.585100000000001 
rwrist 16.1938 
rhand -4.6229100000000001 10.2712 
rfingers 7.1250200000000001 
rthumb 21.1557 -18.5945 
125
root -5.3709299999999995 8.5046400000000002 -9.838845000000001 176.56800000000001 48.685600000000001 539.30799999999999 
lfemur -21.232500000000002 9.0157799999999995 -10.230499999999999 
ltibia 63.445700000000002 
lfoot -5.9950999999999999 4.7594799999999999 
ltoes -26.313400000000001 
rfemur -10.8863 0.37262699999999999 28.3565 
rtibia 35.793900000000001 
rfoot -15.202199999999999 19.345500000000001 
rtoes 15.8094 
lowerback 0.36128100000000002 -0.61909899999999995 -1.8148299999999999 
upperback 10.507999999999999 0.14421500000000001 -1.8906799999999999 
thorax 11.0015 0.30538399999999999 -0.94631500000000002 
lowerneck 6.86198 -15.405099999999999 -1.42822 
upperneck 2.2898299999999998 -20.524000000000001 13.7531 
head 1.1970099999999999 -10.2675 4.2566499999999996 
lclavicle 7.0171000000000002e-014 -2.3854199999999999e-014 
lhumerus -36.102200000000003 -4.1864800000000004 90.645099999999999 
lradius 23.406300000000002 
lwrist -18.1876 
lhand -16.467199999999998 -7.6095100000000002 
lfingers 7.1250200000000001 
lthumb 9.74939 22.1448 
rclavicle 7.0171000000000002e-014 -2.3854199999999999e-014 
rhumerus -19.044499999999999 -10.587 -95.033600000000007 
rradius 24.894200000000001 
rwrist 14.646699999999999 
rhand -4.7537000000000003 10.305400000000001 
rfingers 7.1250200000000001 
rthumb 21.030000000000001 -18.574400000000001 
126
root -5.3270099999999996 8.4998699999999996 -9.8868150000000004 176.52699999999999 49.572699999999998 539.29300000000001 
lfemur -22.0425 8.5455100000000002 -10.4283 
ltibia 61.984499999999997 
lfoot -7.1031300000000002 5.1534599999999999 
ltoes -25.121500000000001 
rfemur -10.193899999999999 0.51189600000000002 28.292000000000002 
rtibia 35.590400000000002 
rfoot -15.333299999999999 20.1617 
rtoes 16.247 
lowerback 0.307421 -0.473659 -1.6837 
upperback 10.561999999999999 0.34384799999999999 -1.94069 
thorax 11.0977 0.41866399999999998 -1.0553600000000001 
lowerneck 6.7897600000000002 -15.311299999999999 -1.4042399999999999 
upperneck 2.28491 -20.3901 13.2766 
head 1.30596 -10.2105 4.5648099999999996 
lclavicle -1.33186e-014 4.4527799999999999e-014 
lhumerus -36.0379 -4.1077300000000001 90.751800000000003 
lradius 23.308700000000002 
lwrist -18.4847 
lhand -16.134 -7.6432200000000003 
lfingers 7.1250200000000001 
lthumb 10.0709 22.095800000000001 
rclavicle -1.33186e-014 4.4527799999999999e-014 
rhumerus -18.819199999999999 -9.0824300000000004 -95.419300000000007 
rradius 26.197299999999998 
rwrist 13.4579 
rhand -4.8459700000000003 10.493600000000001 
rfingers 7.1250200000000001 
rthumb 20.941400000000002 -18.395900000000001 
127
root -5.2821900000000008 8.4970800000000004 -9.9338850000000001 176.50299999999999 50.429600000000001 539.31600000000003 
lfemur -22.808700000000002 8.1023700000000005 -10.5794 
ltibia 60.391100000000002 
lfoot -8.1217199999999998 5.2855999999999996 
ltoes -24.714300000000001 
rfemur -9.4710099999999997 0.56788000000000005 28.239100000000001 
rtibia 35.3324 
rfoot -15.378399999999999 21.052499999999998 
rtoes 16.788900000000002 
lowerback 0.31839299999999998 -0.33468300000000001 -1.52311 
upperback 10.588800000000001 0.52946199999999999 -2.0022700000000002 
thorax 11.124599999999999 0.52811699999999995 -1.19417 
lowerneck 6.77759 -15.221299999999999 -1.31366 
upperneck 2.2543899999999999 -20.259499999999999 13.1524 
head 1.2603599999999999 -10.1464 4.51518 
lclavicle 3.0215299999999997e-014 -4.9298600000000002e-014 
lhumerus -35.977899999999998 -4.23414 90.895399999999995 
lradius 23.222100000000001 
lwrist -18.441099999999999 
lhand -16.0258 -7.4992200000000002 
lfingers 7.1250200000000001 
lthumb 10.1752 22.2347 
rclavicle 3.0215299999999997e-014 -4.9298600000000002e-014 
rhumerus -18.814900000000002 -7.5991299999999997 -95.778599999999997 
rradius 27.6967 
rwrist 12.2719 
rhand -4.9573799999999997 10.7584 
rfingers 7.1250200000000001 
rthumb 20.834399999999999 -18.142900000000001 
